HIERARCHY
ROOT Hips
{
  OFFSET 0 0 0
  CHANNELS 6 Xposition Yposition Zposition Zrotation Yrotation Xrotation
  JOINT LeftThigh
  {
    OFFSET 8.409438 0 -5.917753
    CHANNELS 3 Zrotation Yrotation Xrotation
    JOINT LeftLeg
    {
      OFFSET 0 0 -42.358652
      CHANNELS 3 Zrotation Yrotation Xrotation
      JOINT LeftFoot
      {
        OFFSET 0 0 -39.357303
        CHANNELS 3 Zrotation Yrotation Xrotation
      }
    }
  }
  JOINT RightThigh
  {
    OFFSET -8.409438 0 -5.917753
    CHANNELS 3 Zrotation Yrotation Xrotation
    JOINT RightLeg
    {
      OFFSET 0 0 -42.358652
      CHANNELS 3 Zrotation Yrotation Xrotation
      JOINT RightFoot
      {
        OFFSET 0 0 -39.357303
        CHANNELS 3 Zrotation Yrotation Xrotation
      }
    }
  }
  JOINT SpineLow
  {
    OFFSET 0 0 4.719101
    CHANNELS 3 Zrotation Yrotation Xrotation
    JOINT SpineMid
    {
      OFFSET 0 0 12.899191
      CHANNELS 3 Zrotation Yrotation Xrotation
      JOINT Chest
      {
        OFFSET 0 0 12.899191
        CHANNELS 3 Zrotation Yrotation Xrotation
        JOINT LeftShoulder
        {
          OFFSET 7.550562 1.41573 9.438202
          CHANNELS 3 Zrotation Yrotation Xrotation
          JOINT LeftArm
          {
            OFFSET 9.155056 0 4.247191
            CHANNELS 3 Zrotation Yrotation Xrotation
            JOINT LeftForearm
            {
              OFFSET 0 0 25.771955
              CHANNELS 3 Zrotation Yrotation Xrotation
              JOINT LeftHand
              {
                OFFSET 0 0 25.197169
                CHANNELS 3 Zrotation Yrotation Xrotation
              }
            }
          }
        }
        JOINT RightShoulder
        {
          OFFSET -7.550562 1.41573 9.438202
          CHANNELS 3 Zrotation Yrotation Xrotation
          JOINT RightArm
          {
            OFFSET -9.155056 0 4.247191
            CHANNELS 3 Zrotation Yrotation Xrotation
            JOINT RightForearm
            {
              OFFSET 0 0 -25.771955
              CHANNELS 3 Zrotation Yrotation Xrotation
              JOINT RightHand
              {
                OFFSET 0 0 -25.197169
                CHANNELS 3 Zrotation Yrotation Xrotation
              }
            }
          }
        }
        JOINT Neck
        {
          OFFSET 0 0 15.101124
          CHANNELS 3 Zrotation Yrotation Xrotation
          JOINT Head
          {
            OFFSET 0 0 11.325843
            CHANNELS 3 Zrotation Yrotation Xrotation
            End Site
            {
              OFFSET 0 0 14.157303
            }
          }
        }
      }
    }
  }
}
MOTION
Frames: 13
Frame Time: 0.0
0.0  89.887642  0.0  2.757787  27.62145  -83.613229  -10.479942  -16.822518  -24.766575  -12.45843  12.691864  26.869526  -2.303302  -2.321491  2.514511  -23.460672  13.909176  -21.594829  -17.083821  11.339558  31.465791  -3.247707  1.993062  -3.471057  -2.885363  0.387713  -0.280008  -7.891803  1.024651  -0.810393  -7.891804  1.024651  -0.810393  2.834904  14.380378  13.077276  133.851851  46.949795  -164.326363  -46.416946  3.092338  31.584237  74.951565  -10.395666  16.876969  -3.771136  -10.45034  20.128516  82.957225  36.514682  32.938689  1.75358  10.644234  -31.232059  89.77671  14.720198  -25.720245  -9.906588  -1.277808  -0.044672  -7.429727  -0.957931  -0.054239  
0.0  89.887642  0.0  2.5946  28.611902  -83.609638  -10.234032  -17.252491  -25.896778  -12.483495  13.697723  28.087758  -1.964388  -2.407211  2.275057  -23.448573  13.210078  -22.051787  -15.862823  11.639655  32.863909  -3.482966  2.389717  -3.075897  -2.85998  0.399338  -0.182531  -7.821062  1.068224  -0.545352  -7.821062  1.068224  -0.545352  2.726881  14.671421  12.948547  133.261832  47.215987  -164.484751  -47.945924  3.038189  31.856751  74.660669  -9.962043  17.180482  -3.202635  -10.447233  20.132492  82.642282  37.046145  32.932147  2.404589  11.15874  -29.748752  90.006422  15.520025  -25.798352  -10.607548  -1.744465  -0.383969  -7.956145  -1.302149  -0.318359  
0.0  89.887642  0.0  2.225371  28.965295  -83.954695  -8.835634  -17.585256  -26.882136  -12.64002  14.682598  29.43427  -1.938859  -2.622673  1.928888  -22.381512  12.447436  -22.241763  -15.57026  12.156766  34.19079  -3.822198  3.019456  -2.741788  -2.722399  0.399831  -0.042986  -7.442731  1.086471  -0.162309  -7.442732  1.086471  -0.162309  2.487931  15.169274  12.734489  132.951243  47.550039  -164.566988  -49.59091  3.163713  32.448617  74.308198  -9.420606  17.394875  -2.342012  -10.385403  20.377681  81.70941  37.857761  32.602951  3.447748  11.792208  -28.591051  89.983569  16.082335  -25.64663  -11.400402  -2.269013  -0.709708  -8.551831  -1.68922  -0.574804  
0.0  89.887642  0.0  1.623358  28.490984  -84.694811  -6.036277  -17.819871  -27.567874  -13.180879  15.460934  30.71774  -2.75588  -2.84171  1.547514  -20.770426  11.649913  -22.569667  -15.118019  12.749596  35.807875  -4.204237  3.575353  -2.387469  -2.399131  0.396305  0.138172  -6.55605  1.09573  0.337993  -6.55605  1.09573  0.337993  2.174767  15.67939  12.632835  132.716576  47.878706  -164.396447  -51.427041  3.631346  33.489681  74.103144  -8.850695  17.025303  -1.768402  -10.275894  20.858645  81.001598  38.539722  32.591928  3.722781  12.328405  -27.942005  89.940101  16.437903  -25.475357  -12.391011  -2.822433  -0.972024  -9.295894  -2.098147  -0.786534  
0.0  89.887642  0.0  0.709771  27.248111  -85.563614  -2.812088  -17.983182  -27.704227  -14.245552  15.744485  31.371485  -3.8973  -2.84814  1.334557  -19.225726  10.751512  -22.999633  -14.14612  12.965948  37.439456  -4.28626  3.904792  -2.175971  -1.973483  0.359534  0.278534  -5.390477  1.004702  0.731488  -5.390477  1.004702  0.731488  1.967724  16.119032  12.721122  132.950431  48.099592  -163.860973  -53.493671  4.656598  35.017022  74.244276  -8.401491  15.750291  -0.893311  -10.19785  21.746408  78.966191  39.730154  31.56574  4.370486  12.473713  -27.297312  89.688302  16.622211  -25.467952  -13.286416  -3.281818  -1.048892  -9.967751  -2.439939  -0.85837  
0.0  89.887642  0.0  -0.396257  25.43723  -86.309965  0.238945  -18.447183  -27.655274  -15.516427  16.085674  31.585806  -4.607405  -2.836664  1.270895  -17.808034  9.424976  -23.24159  -12.826169  12.87958  38.287239  -4.248951  4.17201  -1.964028  -1.440011  0.293822  0.356567  -3.931883  0.82401  0.956798  -3.931883  0.82401  0.956798  1.667354  16.561623  12.960124  133.41374  48.461013  -163.073037  -55.755809  6.212043  36.805746  74.710768  -8.299046  14.000364  0.138364  -10.458163  22.929803  76.377874  41.22894  30.49951  4.56879  11.877451  -26.934148  89.092198  16.685471  -25.646291  -14.20612  -3.639604  -0.975162  -10.656842  -2.708781  -0.816379  
0.0  89.887642  0.0  -1.267496  23.159902  -86.802442  2.597587  -18.916341  -27.237607  -16.274502  16.369183  31.643141  -5.148394  -2.869579  1.166993  -16.2858  8.290279  -23.53597  -11.511844  12.430849  38.633139  -4.288077  4.423947  -1.691946  -0.788286  0.249027  0.357772  -2.151036  0.692251  0.969731  -2.151036  0.692251  0.969731  0.795919  17.240084  13.02073  133.540239  48.908123  -162.652846  -58.123267  7.815974  38.682766  75.293764  -8.447525  12.398154  0.758313  -10.901525  24.561926  73.65735  43.12106  29.346659  4.360412  10.498525  -26.715589  88.284332  16.632249  -25.869197  -15.281117  -3.853475  -0.661616  -11.460696  -2.8757  -0.59298  
0.0  89.887642  0.0  -1.48849  20.391018  -86.883862  4.574532  -18.649593  -26.414137  -16.864206  16.163437  31.412836  -5.557621  -2.768615  1.149743  -15.531375  7.659222  -24.421256  -9.456585  11.497968  38.88725  -4.319613  4.682432  -1.43291  0.019162  0.321782  0.347387  0.057001  0.879262  0.949855  0.057001  0.879262  0.949856  -1.34948  17.800027  12.663173  133.399651  49.464629  -162.451434  -60.597243  8.964907  40.805035  75.820594  -8.461407  11.007048  0.721424  -11.806141  26.0723  70.708682  45.214953  27.936249  4.047033  8.736323  -26.340006  87.627756  16.399392  -25.93465  -16.66853  -4.153339  -0.277393  -12.497797  -3.110182  -0.321742  
0.0  89.887642  0.0  -1.217689  16.748006  -87.064019  6.20344  -18.188585  -24.761497  -17.169583  15.770312  30.910403  -5.457377  -2.516599  1.199765  -14.132244  7.340496  -24.711975  -7.582847  10.754854  38.429549  -4.293948  4.781683  -1.322423  0.956751  0.502546  0.413704  2.624033  1.356998  1.150646  2.624033  1.356998  1.150646  -3.273359  17.723528  12.025098  133.630164  50.187585  -161.822607  -62.238692  10.485089  42.930996  76.346421  -8.410266  9.595478  -0.0395  -12.814957  26.847801  68.403569  46.840062  26.51745  3.74475  7.099694  -25.678398  87.320078  16.027876  -25.840432  -18.067641  -4.581084  0.105731  -13.542697  -3.442502  -0.056562  
0.0  89.887642  0.0  -0.645806  12.22663  -87.525544  6.718773  -17.60925  -22.132995  -16.468255  14.933618  30.396065  -5.098285  -2.150296  1.239634  -12.383388  7.631109  -24.794162  -6.136782  10.100594  37.721406  -3.990643  4.739881  -1.344344  1.739653  0.737349  0.526272  4.772273  1.976306  1.4911  4.772273  1.976306  1.4911  -2.790098  17.117279  11.066137  133.813403  50.178396  -161.381254  -63.028614  12.737574  45.645936  77.325877  -8.55153  8.385934  -0.070933  -14.062113  26.871153  67.547436  47.714697  25.934985  3.434058  5.998994  -24.700522  87.225021  15.596846  -25.668166  -18.422035  -4.953339  0.570684  -13.803277  -3.736224  0.278324  
0.0  89.887642  0.0  0.211045  7.208464  -88.304287  6.869699  -16.726445  -18.809534  -15.801048  14.007247  29.557999  -4.30987  -1.742559  1.339589  -10.814921  8.413279  -24.624887  -4.892895  9.360717  36.562443  -3.511339  4.56247  -1.40603  1.98469  0.989282  0.536793  5.449324  2.657798  1.548086  5.449324  2.657798  1.548086  1.999003  16.015386  11.753821  136.500175  49.705169  -158.83082  -61.90806  15.199743  49.411252  78.185308  -9.230721  7.948497  2.582986  -15.43331  26.891079  67.749044  47.917101  25.936776  3.239211  5.364118  -23.699479  87.038018  15.104077  -25.410341  -16.515929  -4.944388  1.495341  -12.367215  -3.751953  0.987693  
0.0  89.887642  0.0  1.36161  2.023402  -89.521441  6.607648  -15.158379  -14.819923  -15.446568  12.614138  28.366765  -3.080642  -1.174072  1.589624  -10.183305  9.486091  -24.075145  -3.205374  8.340649  34.896785  -2.796432  4.249678  -1.573161  2.163484  1.188158  0.441066  5.939423  3.205128  1.311749  5.939423  3.205128  1.311749  6.893723  14.366322  13.678514  141.440586  48.057215  -154.290453  -59.689037  16.444155  53.339124  78.065965  -10.388932  9.149171  3.81204  -16.923819  26.301292  69.754938  46.553387  27.288726  3.206503  5.039696  -23.375218  86.624086  14.426344  -25.132534  -14.207983  -4.401617  2.856096  -10.630424  -3.369828  2.039788  
0.0  89.887642  0.0  2.940167  -3.482341  -91.127829  6.078773  -12.746265  -10.496684  -14.763838  10.563748  27.068161  -1.587536  -0.478603  2.094733  -9.744324  11.116329  -23.387273  -1.499691  7.070309  32.901883  -1.912847  3.851123  -1.761396  2.310312  1.413186  0.422889  6.346039  3.818185  1.291077  6.346039  3.818185  1.291077  11.848526  11.727469  14.222401  146.203658  44.603397  -150.172642  -56.777908  14.708074  57.058053  74.44002  -11.636708  13.412402  4.07341  -18.18189  24.673559  72.912977  43.926913  28.828354  2.803994  5.078712  -24.211201  86.031286  13.865167  -24.902731  -11.412769  -3.738792  3.923791  -8.532932  -2.878674  2.873069  
